<svg xmlns="http://www.w3.org/2000/svg" width="240" height="240" viewBox="0 0 240 240"><g style="isolation:isolate"><path d="M120,210a90,90,0,1,1,63.64-26.36A89.41,89.41,0,0,1,120,210Zm0-172.56a82.56,82.56,0,1,0,58.38,24.18A82,82,0,0,0,120,37.44Z" fill="#f6f4f0"/><path d="M150.6,92.48c-1.3-11.73,1.25-22-13.72-26.62s-26.95-4-34.25,2.66S96,87.65,95.75,91.06c9.31-4,16-6.34,27.43-5.7S141.86,87.88,150.6,92.48Z" fill="#ff2828"/><circle cx="139.94" cy="170.28" r="6.85" fill="#ff2828"/><path d="M93.38,126.28c-.07-1.12-2.29,2.84-2.29,2.84l-1.39,2.2-.28,2,.56,1.61,1.45,3.3-.56,2.13-1.45,2.52-1.94,1.74-1,2.26L86.25,149l.67,2.78,1.39,2.58,4.46-2.58,9.57-4.91,6.85-1.38.22-7.79C108.88,139,93.52,128.56,93.38,126.28Z" fill="#e6e1d7"/><polygon points="150.63 121.81 151.5 127 153.9 129.83 155.36 132.01 155.66 133.99 155.07 135.6 153.55 138.87 154.14 140.98 155.66 143.49 157.71 145.22 158.7 147.46 158.99 149.58 158.29 152.33 156.81 155.58 150.65 151.65 142.54 148.23 134.74 146.18 134.65 138.35 139.16 135.79 143.72 131.94 147.29 127.26 149.51 123.54 150.63 121.81" fill="#e6e1d7"/><path d="M130.75,135.93v8.29c0,5.28-5.06,9.56-10.33,9.56s-10.34-4.28-10.34-9.56v-8.29" fill="none" stroke="#222" stroke-linecap="round" stroke-linejoin="round" stroke-width="2.72"/><path d="M131,144.55c15.83,2.44,29.89,10.84,36.55,30.94" fill="none" stroke="#222" stroke-linecap="round" stroke-linejoin="round" stroke-width="2.72"/><path d="M109,144.55C93.14,147,79.08,155.39,72.42,175.49" fill="none" stroke="#222" stroke-linecap="round" stroke-linejoin="round" stroke-width="2.72"/><path d="M121.2,59.28c10,0,20.19,5.33,23.63,9.59,5.18,6.41,5.88,25.64,5.88,25.64l0,.52v12.39a30.36,30.36,0,0,1-30.27,30.27h0a30.36,30.36,0,0,1-30.27-30.27V94.51S90.86,75.28,96,68.87c3.44-4.26,13.67-9.59,23.63-9.59Z" fill="none" stroke="#222" stroke-linecap="round" stroke-linejoin="round" stroke-width="2.72"/><path d="M117.93,59.9a2.94,2.94,0,0,1-.51-1.66,3,3,0,0,1,5.94,0,3,3,0,0,1-.45,1.58Z" fill="#222"/><path d="M120.49,98c17.71,0,29.51,4.85,33.3,5.8,1.14.29,2.09.3,2.35-.06.54-.73-.58-2.32-.58-2.32l-4.87-6.53c-10-9-30.2-9-30.2-9h-.16s-20.16,0-30.21,9l-4.86,6.53s-1.12,1.59-.58,2.32c.26.36,1.21.35,2.35.06,3.79-1,15.58-5.8,33.3-5.8Z" fill="#fff" stroke="#222" stroke-linecap="round" stroke-linejoin="round" stroke-width="2.72"/><path d="M91.61,117.43c-.18,9.69-5.3,8-5.93,13.13-.57,4.62,6.08,5.48-1.45,11.9-3.77,3.21-2.52,8.19-.11,11.58" fill="none" stroke="#222" stroke-linecap="round" stroke-linejoin="round" stroke-width="2.72"/><path d="M149.22,117.43c.18,9.69,5.3,8,5.93,13.13.57,4.62-6.08,5.48,1.45,11.9,3.89,3.32,2.43,8.53-.14,11.91" fill="none" stroke="#222" stroke-linecap="round" stroke-linejoin="round" stroke-width="2.72"/><path d="M122.21,98.79c15.79,0,26.31,3.8,29.68,4.55,1,.23,1.87.23,2.1,0,.48-.57-.52-1.82-.52-1.82l-4.33-5.12c-9-7.1-26.93-7.11-26.93-7.11h-.14s-18,0-26.93,7.11l-4.34,5.12s-1,1.25-.52,1.82c.24.28,1.09.28,2.1,0,3.38-.75,13.89-4.55,29.69-4.55Z" fill="#ff2828" style="mix-blend-mode:multiply"/></g></svg>